<svg width="29" height="20" viewBox="0 0 29 20" fill="none" xmlns="http://www.w3.org/2000/svg">
<path fill-rule="evenodd" clip-rule="evenodd" d="M12.9477 20L17.8909 0.689673L15.1965 0L10.2533 19.3103L12.9477 20ZM7.47792 3.25318L0.524908 8.8155C-0.077786 9.27917 -0.170262 10.1596 0.293073 10.7623C0.322927 10.8223 0.372191 10.8628 0.428332 10.9089C0.459143 10.9343 0.492026 10.9613 0.524908 10.9942L7.47792 16.5565L9.23943 14.3779L3.6305 9.88161L9.19316 5.43185L7.47792 3.25318ZM21.2449 3.25318L19.4837 5.43179L25.0927 9.92807L19.4837 14.4243L21.2453 16.603L28.1983 11.0406C28.801 10.577 28.8934 9.69655 28.4301 9.09379C28.4002 9.03387 28.351 8.99337 28.2948 8.94721C28.264 8.92187 28.2311 8.89484 28.1983 8.86196L21.2449 3.25318Z" fill="#FB70AA"/>
</svg>
