<svg width="322" height="106" viewBox="0 0 322 106" fill="none" xmlns="http://www.w3.org/2000/svg">
<g clip-path="url(#clip0_908_1263)">
<path d="M0 4.00635H18.7149C28.7584 4.00635 33.9723 10.4276 33.9723 17.233C33.9723 32.3257 16.6843 42.4241 3.1283 42.4241H0V41.4911C1.81112 41.4911 3.4576 39.9544 3.4576 38.253V9.76902C3.4576 8.06766 1.81112 4.93936 0 4.93936V4.00635ZM12.5132 37.6493C18.6052 35.2345 25.246 28.0998 25.246 17.8367C25.246 11.3606 20.9102 6.6956 16.4648 6.6956H14.1597C12.129 6.6956 10.757 8.23231 10.757 10.3178V36.2224C10.757 37.814 11.6351 37.9786 12.5132 37.6493Z" fill="#311B4D"/>
<path d="M63.4893 35.6738L64.6418 36.991C63.3795 38.5826 59.3182 42.7537 53.2262 42.7537C43.7865 42.7537 37.6396 35.9483 37.6396 27.5512C37.6396 19.4835 42.9632 12.7329 51.5798 12.7329C59.7024 12.7329 64.8614 18.1114 64.8614 24.0387C64.8614 26.5633 63.0502 28.8135 60.1963 28.8135L46.1464 28.9233C47.0245 35.2897 52.0188 38.6375 55.8057 38.6375C58.8243 38.6375 61.733 37.2654 63.4893 35.6738ZM51.6895 15.8612C48.1771 15.8612 45.4878 21.13 45.7073 25.6303L57.6717 25.4108C57.6717 19.0993 55.3667 15.8612 51.6895 15.8612Z" fill="#311B4D"/>
<path d="M87.4173 12.7329C91.0396 12.7329 92.3019 15.0929 92.3019 17.6724C92.3019 19.8128 90.6554 21.7337 89.3382 21.7337C88.5699 21.7337 87.4173 18.2761 83.5756 18.2761C81.1607 18.2761 79.3496 20.197 79.2947 24.9169V36.4422C79.2947 38.418 80.9961 41.3816 82.8621 41.3816V42.4244H68.6475V41.3816C70.5135 41.3816 72.2149 38.418 72.2149 36.4422V19.0444C72.2149 17.1784 70.5135 15.3124 68.6475 15.3124V14.2697L79.2947 13.0622V18.7151C81.9291 15.6966 85.0574 12.7329 87.4173 12.7329Z" fill="#311B4D"/>
<path d="M121.253 35.6738L122.406 36.991C121.143 38.5826 117.082 42.7537 110.99 42.7537C101.55 42.7537 95.4033 35.9483 95.4033 27.5512C95.4033 19.4835 100.727 12.7329 109.343 12.7329C117.466 12.7329 122.625 18.1114 122.625 24.0387C122.625 26.5633 120.814 28.8135 117.96 28.8135L103.91 28.9233C104.788 35.2897 109.783 38.6375 113.569 38.6375C116.588 38.6375 119.497 37.2654 121.253 35.6738ZM109.453 15.8612C105.941 15.8612 103.252 21.13 103.471 25.6303L115.435 25.4108C115.435 19.0993 113.13 15.8612 109.453 15.8612Z" fill="#311B4D"/>
<path d="M153.194 35.5639C154.401 39.6801 156.157 41.3814 158.353 41.3814V42.4242H144.577V41.3814C148.144 41.3814 144.193 27.7157 138.43 27.7157C137.881 28.3194 136.784 29.5268 136.784 29.5268V36.3871C136.784 38.3629 138.43 41.3814 140.296 41.3814V42.4242H126.027V41.3814C127.893 41.3814 129.594 38.5824 129.594 36.3871V7.35426C129.594 5.48825 127.893 3.4576 126.027 3.4576V2.41483L136.784 0V25.6301L142.711 18.9894C145.291 16.1355 146.333 14.1597 144.467 14.1597V13.062H155.169V14.1597C153.962 14.1597 151.163 13.8853 142.931 22.5567C147.925 23.4897 150.943 27.9352 153.194 35.5639Z" fill="#311B4D"/>
<path d="M23.2702 69.8988L32.9844 99.1511C33.5881 101.017 35.7285 104.146 37.5396 104.146V105.079H22.3372V104.146C24.2032 104.146 25.3008 101.621 24.6971 99.5901L23.4348 95.5288H8.72632L7.46402 99.4804C6.80543 101.566 7.95797 104.146 9.82397 104.146V105.079H0V104.146C1.75624 104.146 3.95154 101.072 4.50037 99.206L15.0378 70.4475C14.3792 68.9657 13.6109 67.7034 12.2388 67.7034V66.6606H18.4954C21.5139 66.6606 22.8311 68.5816 23.2702 69.8988ZM9.33003 93.114H22.6665L16.4648 75.0028C16.3001 74.1795 15.5318 74.3442 15.3671 74.9479L9.33003 93.114Z" fill="#311B4D"/>
<path d="M40.1601 81.7534C40.1601 79.1191 39.5016 77.9665 37.6904 77.9665V76.9238L47.24 75.7163V94.7057C47.24 101.676 49.9292 101.895 51.0818 101.895C53.7161 101.895 57.1737 98.9865 58.5458 96.9559V81.7534C58.5458 79.2837 57.9421 77.9665 56.0761 77.9665V76.9238L65.6805 75.7163V99.7C65.6805 101.895 67.3819 104.036 69.2479 104.036V105.079H61.4546C59.4788 105.079 58.5458 103.926 58.5458 102.225V101.017C57.1737 102.28 53.1673 105.353 49.106 105.353C43.6726 105.353 40.1601 102.499 40.1601 94.7057V81.7534Z" fill="#311B4D"/>
<path d="M81.0348 81.644C81.0348 86.2541 95.908 87.7359 95.908 96.4074C95.908 101.895 91.5722 105.463 84.218 105.463C77.2479 105.463 73.2964 101.237 73.2964 98.0537C73.2964 94.3217 77.4674 92.8949 77.4674 92.8949C77.4674 96.4074 79.7176 101.786 84.7668 101.786C86.5779 101.786 88.883 100.523 88.883 98.2734C88.883 92.9498 74.7782 93.1692 74.7782 82.8513C74.7782 78.3509 79.7725 75.2227 85.0961 75.2227C93.3285 75.2227 95.908 80.711 93.8773 83.1258C92.4504 84.8271 89.7062 83.8393 89.7062 83.8393C89.7062 82.8514 88.883 78.2961 84.8766 78.2961C83.0106 78.2961 81.0348 79.5035 81.0348 81.644Z" fill="#311B4D"/>
<path d="M114.19 99.4257C114.465 99.0964 115.288 98.328 116.221 98.328C117.648 98.328 118.471 99.2062 118.471 101.017C118.471 103.542 114.52 105.353 111.83 105.353C105.793 105.353 102.555 102.664 102.555 96.1876V78.9545H99.7012V76.2653C103.433 76.2653 104.915 73.3565 104.915 68.3073L109.525 63.8618V75.7164H117.373L116.77 78.9545H109.635V96.023C109.635 100.743 110.513 102.06 112.215 102.06C113.751 102.06 114.19 100.633 114.19 99.4257Z" fill="#311B4D"/>
<path d="M132.261 75.1676V99.0415C132.261 101.072 133.798 104.036 135.664 104.036V105.079H121.614V104.036C123.48 104.036 125.072 101.017 125.072 99.0415V81.8633C125.072 79.9973 123.316 78.0764 121.45 78.0764V77.0336L132.261 75.1676ZM128.42 72.5333C126.17 72.5333 124.358 70.6124 124.358 68.3622C124.358 66.0022 126.17 64.1362 128.42 64.1362C130.78 64.1362 132.591 66.0022 132.591 68.3622C132.591 70.6124 130.78 72.5333 128.42 72.5333Z" fill="#311B4D"/>
<path d="M167.246 85.7053V99.0966C167.246 101.182 169.003 104.036 170.814 104.036V105.079H156.599V104.036C158.465 104.036 160.167 101.182 160.167 99.0966V85.7053C160.167 80.0524 157.368 79.5584 156.105 79.5584C153.855 79.5584 150.507 83.1807 149.08 85.5406V99.0966C149.08 101.347 150.782 104.036 152.648 104.036V105.079H138.378V104.036C140.244 104.036 141.946 101.292 141.946 99.0966V81.9184C141.946 80.0524 140.134 78.0217 138.268 78.0217V76.9789L148.531 75.7166L149.08 81.5891C150.891 79.1742 155.117 75.3325 159.069 75.3325C164.392 75.3325 167.246 77.6924 167.246 85.7053Z" fill="#311B4D"/>
<path d="M231.938 24.2485L202.584 47.7312C200.04 49.6887 199.649 53.4055 201.605 55.9502C201.801 56.342 202.192 56.5372 202.584 56.929L231.938 80.4116L239.375 71.2141L215.695 52.232L239.179 33.4463L231.938 24.2485Z" fill="#311B4D"/>
<path d="M290.055 24.2485L282.62 33.446L306.3 52.4281L282.62 71.4102L290.057 80.6077L319.41 57.1251C321.955 55.1676 322.345 51.4507 320.389 48.906C320.194 48.5143 319.802 48.3191 319.41 47.9273L290.055 24.2485Z" fill="#311B4D"/>
<path d="M275.896 13.4267L255.027 94.9498L243.652 92.0382L264.521 10.5151L275.896 13.4267Z" fill="#311B4D"/>
</g>
<defs>
<clipPath id="clip0_908_1263">
<rect width="322" height="106" fill="white"/>
</clipPath>
</defs>
</svg>
