<svg width="25" height="77" viewBox="0 0 25 77" fill="none" xmlns="http://www.w3.org/2000/svg">
<path d="M0.949 76.1838L0.949 71.7508C0.949 69.3718 2.47 68.1368 4.082 68.1368C7.657 68.1368 10.049 72.2318 10.049 75.4428V76.1838H9.828C9.828 75.7548 9.464 75.3648 9.061 75.3648H2.314C1.911 75.3648 1.17 75.7548 1.17 76.1838H0.949ZM8.918 73.2198C8.346 71.7768 6.656 70.2038 4.225 70.2038C2.691 70.2038 1.586 71.2308 1.586 72.2838L1.586 72.8298C1.586 73.3108 1.95 73.6358 2.444 73.6358H8.58C8.957 73.6358 8.996 73.4278 8.918 73.2198Z" fill="#311B4D"/>
<path d="M8.45 61.1451L8.762 60.8721C9.139 61.1711 10.127 62.1331 10.127 63.5761C10.127 65.8121 8.515 67.2681 6.526 67.2681C4.615 67.2681 3.016 66.0071 3.016 63.9661C3.016 62.0421 4.29 60.8201 5.694 60.8201C6.292 60.8201 6.825 61.2491 6.825 61.9251L6.851 65.2531C8.359 65.0451 9.152 63.8621 9.152 62.9651C9.152 62.2501 8.827 61.5611 8.45 61.1451ZM3.757 63.9401C3.757 64.7721 5.005 65.4091 6.071 65.3571L6.019 62.5231C4.524 62.5231 3.757 63.0691 3.757 63.9401Z" fill="#311B4D"/>
<path d="M3.016 55.4774C3.016 54.6194 3.575 54.3204 4.186 54.3204C4.693 54.3204 5.148 54.7104 5.148 55.0224C5.148 55.2044 4.329 55.4774 4.329 56.3874C4.329 56.9594 4.784 57.3884 5.902 57.4014H8.632C9.1 57.4014 9.802 56.9984 9.802 56.5564L10.049 56.5564L10.049 59.9234L9.802 59.9234C9.802 59.4814 9.1 59.0784 8.632 59.0784H4.511C4.069 59.0784 3.627 59.4814 3.627 59.9234H3.38L3.094 57.4014H4.433C3.718 56.7774 3.016 56.0364 3.016 55.4774Z" fill="#311B4D"/>
<path d="M8.45 47.4627L8.762 47.1897C9.139 47.4887 10.127 48.4507 10.127 49.8937C10.127 52.1297 8.515 53.5857 6.526 53.5857C4.615 53.5857 3.016 52.3247 3.016 50.2837C3.016 48.3597 4.29 47.1377 5.694 47.1377C6.292 47.1377 6.825 47.5667 6.825 48.2427L6.851 51.5707C8.359 51.3627 9.152 50.1797 9.152 49.2827C9.152 48.5677 8.827 47.8787 8.45 47.4627ZM3.757 50.2577C3.757 51.0897 5.005 51.7267 6.071 51.6747L6.019 48.8407C4.524 48.8407 3.757 49.3867 3.757 50.2577Z" fill="#311B4D"/>
<path d="M8.424 39.8969C9.399 39.6109 9.802 39.1949 9.802 38.6749H10.049L10.049 41.9379H9.802C9.802 41.0929 6.565 42.0289 6.565 43.3939C6.708 43.5239 6.994 43.7839 6.994 43.7839H8.619C9.087 43.7839 9.802 43.3939 9.802 42.9519H10.049L10.049 46.3319L9.802 46.3319C9.802 45.8899 9.139 45.4869 8.619 45.4869H1.742C1.3 45.4869 0.819 45.8899 0.819 46.3319H0.572L0 43.7839H6.071L4.498 42.3799C3.822 41.7689 3.354 41.5219 3.354 41.9639H3.094L3.094 39.4289H3.354C3.354 39.7149 3.289 40.3779 5.343 42.3279C5.564 41.1449 6.617 40.4299 8.424 39.8969Z" fill="#311B4D"/>
<path d="M16.557 70.6718L23.486 68.3708C23.928 68.2278 24.669 67.7208 24.669 67.2918H24.89L24.89 70.8928H24.669C24.669 70.4508 24.071 70.1908 23.59 70.3338L22.628 70.6328L22.628 74.1168L23.564 74.4158C24.058 74.5718 24.669 74.2988 24.669 73.8568H24.89V76.1838H24.669C24.669 75.7678 23.941 75.2478 23.499 75.1178L16.687 72.6218C16.336 72.7778 16.037 72.9598 16.037 73.2848H15.79V71.8028C15.79 71.0878 16.245 70.7758 16.557 70.6718ZM22.056 73.9738L22.056 70.8148L17.766 72.2838C17.571 72.3228 17.61 72.5048 17.753 72.5438L22.056 73.9738Z" fill="#311B4D"/>
<path d="M19.365 66.671C18.741 66.671 18.468 66.827 18.468 67.256H18.221L17.935 64.994H22.433C24.084 64.994 24.136 64.357 24.136 64.084C24.136 63.46 23.447 62.641 22.966 62.316H19.365C18.78 62.316 18.468 62.459 18.468 62.901H18.221L17.935 60.626L23.616 60.626C24.136 60.626 24.643 60.223 24.643 59.781H24.89V61.627C24.89 62.095 24.617 62.316 24.214 62.316H23.928C24.227 62.641 24.955 63.59 24.955 64.552C24.955 65.839 24.279 66.671 22.433 66.671H19.365Z" fill="#311B4D"/>
<path d="M19.339 56.9891C20.431 56.9891 20.782 53.4661 22.836 53.4661C24.136 53.4661 24.981 54.4931 24.981 56.2351C24.981 57.8861 23.98 58.8221 23.226 58.8221C22.342 58.8221 22.004 57.8341 22.004 57.8341C22.836 57.8341 24.11 57.3011 24.11 56.1051C24.11 55.6761 23.811 55.1301 23.278 55.1301C22.017 55.1301 22.069 58.4711 19.625 58.4711C18.559 58.4711 17.818 57.2881 17.818 56.0271C17.818 54.0771 19.118 53.4661 19.69 53.9471C20.093 54.2851 19.859 54.9351 19.859 54.9351C19.625 54.9351 18.546 55.1301 18.546 56.0791C18.546 56.5211 18.832 56.9891 19.339 56.9891Z" fill="#311B4D"/>
<path d="M23.551 49.1356C23.473 49.0706 23.291 48.8756 23.291 48.6546C23.291 48.3166 23.499 48.1216 23.928 48.1216C24.526 48.1216 24.955 49.0576 24.955 49.6946C24.955 51.1246 24.318 51.8916 22.784 51.8916H18.702V52.5676H18.065C18.065 51.6836 17.376 51.3326 16.18 51.3326L15.127 50.2406H17.935V48.3816L18.702 48.5246V50.2146H22.745C23.863 50.2146 24.175 50.0066 24.175 49.6036C24.175 49.2396 23.837 49.1356 23.551 49.1356Z" fill="#311B4D"/>
<path d="M17.805 44.8551H23.46C23.941 44.8551 24.643 44.4911 24.643 44.0491H24.89L24.89 47.3771H24.643C24.643 46.9351 23.928 46.5581 23.46 46.5581H19.391C18.949 46.5581 18.494 46.9741 18.494 47.4161H18.247L17.805 44.8551ZM17.181 45.7651C17.181 46.2981 16.726 46.7271 16.193 46.7271C15.634 46.7271 15.192 46.2981 15.192 45.7651C15.192 45.2061 15.634 44.7771 16.193 44.7771C16.726 44.7771 17.181 45.2061 17.181 45.7651Z" fill="#311B4D"/>
<path d="M20.301 36.5683L23.473 36.5683C23.967 36.5683 24.643 36.1523 24.643 35.7233H24.89V39.0903H24.643C24.643 38.6483 23.967 38.2453 23.473 38.2453L20.301 38.2453C18.962 38.2453 18.845 38.9083 18.845 39.2073C18.845 39.7403 19.703 40.5333 20.262 40.8713L23.473 40.8713C24.006 40.8713 24.643 40.4683 24.643 40.0263H24.89L24.89 43.4063H24.643C24.643 42.9643 23.993 42.5613 23.473 42.5613L19.404 42.5613C18.962 42.5613 18.481 42.9903 18.481 43.4323H18.234L17.935 41.0013L19.326 40.8713C18.754 40.4423 17.844 39.4413 17.844 38.5053C17.844 37.2443 18.403 36.5683 20.301 36.5683Z" fill="#311B4D"/>
<path d="M5.74316 21.245L11.3055 28.198C11.7692 28.8007 12.6496 28.8932 13.2523 28.4298C13.3451 28.3836 13.3914 28.2908 13.4842 28.198L19.0465 21.245L16.8679 19.4835L12.3716 25.0924L7.92184 19.5297L5.74316 21.245Z" fill="#311B4D"/>
<path d="M5.74316 7.47832L7.92177 9.2395L12.4181 3.63057L16.9143 9.2395L19.0929 7.47799L13.5306 0.524981C13.067 -0.077714 12.1865 -0.170192 11.5838 0.293143C11.491 0.33938 11.4447 0.432182 11.3519 0.524981L5.74316 7.47832Z" fill="#311B4D"/>
<path d="M3.17991 10.8324L22.4902 15.7756L21.8006 18.47L2.49023 13.5268L3.17991 10.8324Z" fill="#311B4D"/>
</svg>
